<?xml version="1.0" encoding="utf-8"?>
<!-- Generator: Adobe Illustrator 23.0.0, SVG Export Plug-In . SVG Version: 6.00 Build 0)  -->
<svg version="1.1" id="圖層_1" xmlns="http://www.w3.org/2000/svg" xmlns:xlink="http://www.w3.org/1999/xlink" x="0px" y="0px"
	 viewBox="0 0 232.6 145.1" style="enable-background:new 0 0 232.6 145.1;" xml:space="preserve">
<style type="text/css">
	.st0{fill:#9FA0A0;}
	.st1{fill:#FFFFFF;stroke:#3F464B;stroke-width:1.15;stroke-miterlimit:10;}
	.st2{fill:none;stroke:#3F464B;stroke-miterlimit:10;}
	.st3{opacity:0.5;fill:none;stroke:#3F464B;stroke-miterlimit:10;enable-background:new    ;}
	.st4{fill:#E2C6B4;}
	.st5{fill:#A3BAC9;}
	.st6{fill:#040000;}
	.st7{fill:#3F464B;}
	.st8{opacity:0.5;}
	.st9{fill:none;stroke:#3F464B;stroke-width:3.04;stroke-linecap:round;stroke-miterlimit:10;}
	.st10{fill:none;stroke:#3F464B;stroke-width:3.04;stroke-linecap:round;stroke-miterlimit:10;stroke-dasharray:1.05,6.3;}
	.st11{opacity:0.5;fill:#3F464B;enable-background:new    ;}
</style>
<title>way-420-fit</title>
<g id="圖層_1-2">
	<rect x="3.7" y="3.8" class="st0" width="229" height="141.3"/>
	<rect x="0.6" y="0.7" class="st1" width="229" height="140.9"/>
	<line class="st2" x1="0.6" y1="41" x2="229.6" y2="41"/>
	<line class="st3" x1="9.7" y1="88.5" x2="220.4" y2="88.5"/>
	<path class="st4" d="M15,51h76.5c3.9,0,7,3.2,7,7v13.4c0,3.9-3.2,7-7,7H15c-3.9,0-7-3.2-7-7V58.1C8,54.2,11.1,51,15,51z"/>
	<path class="st5" d="M15,100.3h76.5c3.9,0,7,3.2,7,7v13.4c0,3.9-3.2,7-7,7H15c-3.9,0-7-3.2-7-7v-13.4C8,103.5,11.1,100.3,15,100.3z
		"/>
	<path class="st6" d="M32.5,67.4c-0.4,1.1-0.9,2.2-1.5,3.2l-1.1-0.9c0.6-0.9,1.1-1.9,1.5-2.9L32.5,67.4z M37.3,66.4h-3v5.3h-1.4
		v-5.4h-2.9v-1.3h2.9v-1.3h-2.8v-1.3h1.6c-0.2-0.6-0.4-1.2-0.6-1.8l1-0.5h-1.9v-1.3h2.6c-0.1-0.4-0.3-0.7-0.5-1l1.5-0.3
		c0.2,0.4,0.4,0.9,0.6,1.3H37v1.3h-1.8l1,0.5c-0.2,0.6-0.5,1.2-0.8,1.8H37v1.3h-2.7v1.3h3L37.3,66.4z M34.9,60.2h-2.6
		c0.3,0.8,0.6,1.5,0.8,2.3H34C34.4,61.8,34.7,61,34.9,60.2z M37,68.9l-1.2,0.7c-0.2-0.8-0.6-1.6-1-2.4l1.2-0.5
		C36.4,67.4,36.8,68.1,37,68.9z M43.8,63.9h-1.5v7.8H41v-7.8h-1.7c0,3.7-0.6,6.3-1.8,7.8l-1.2-1c1-1.4,1.6-3.5,1.6-6.4v-5.5
		c1.6-0.2,3.1-0.6,4.5-1.2l1,1.2c-1.3,0.6-2.7,1-4.1,1.2v2.5h4.5L43.8,63.9z"/>
	<path class="st6" d="M53.1,69.2h-3v2.5h-1.4v-2.5h-2.6v-1.3h2.6v-0.9h-2.1v-5.8h2.1v-0.9h-2.5v-1.3h2.5v-1.4h1.4v1.4h2.8v1.3h-2.8
		v0.9h2.1v5.8h-2.1v0.9h3V69.2z M50.8,63.6v-1H48v1H50.8z M50.8,65.8v-1.1H48v1.1L50.8,65.8z M60.4,61.6l-0.7,1.2
		c-0.3-0.1-0.5-0.3-0.8-0.5v1.3h-1.8v2.1h3v1.3h-3v4.8h-1.4v-4.8h-2.8v-1.3h2.8v-2.1h-1.8v-1.2c-0.3,0.2-0.5,0.4-0.7,0.5l-0.8-1.2
		c1.4-1,2.6-2.4,3.4-4l1.4,0.3c-0.1,0.2-0.1,0.3-0.2,0.5C57.9,59.7,59,60.8,60.4,61.6z M58.8,62.2c-1-0.7-1.8-1.6-2.5-2.7
		c-0.7,1-1.4,1.9-2.3,2.7H58.8z"/>
	<path class="st6" d="M64.6,67.9c-0.2,1.3-0.5,2.6-1,3.8l-1.1-0.5c0.5-1.1,0.8-2.3,1-3.6L64.6,67.9z M68.3,60.7
		c-1,1.9-2.2,3.6-3.7,5.2c0.6-0.1,1.1-0.3,1.7-0.4c-0.1-0.2-0.2-0.5-0.3-0.7l1-0.4c0.4,0.8,0.7,1.7,0.9,2.5l-1,0.4
		c0-0.2-0.1-0.5-0.2-0.7c-1.3,0.4-2.7,0.6-4,0.8l-0.3-1.1c1.1-0.9,2-2,2.8-3.2c-0.7,0.1-1.5,0.2-2.4,0.3l-0.3-1
		c1.2-1.5,2.2-3.1,2.9-4.9l1.3,0.5c-0.6,1.4-1.4,2.7-2.3,4c0.6,0,1.1-0.1,1.6-0.2c0.3-0.5,0.6-1.1,0.9-1.7L68.3,60.7z M66.7,71.1
		l-1.3,0.3c0-1.1-0.1-2.3-0.4-3.4l1.2-0.3C66.4,68.8,66.6,69.9,66.7,71.1z M68.5,69.1l-1,0.4c-0.1-0.6-0.4-1.3-0.7-1.8l1-0.3
		C68,67.9,68.3,68.5,68.5,69.1z M71.2,65.3c0.1,2.1-0.9,4.1-2.9,6l-1-0.9c1.3-1,2.1-2.3,2.5-3.9h-1.6v-1.2H71.2z M76.7,70.1l-1,1.2
		c-1.1-0.9-2-2.1-2.7-3.3v2.4c0,0.4-0.2,0.8-0.6,1c-0.7,0.3-1.5,0.4-2.3,0.3l-0.4-1.4c0.7,0,1.2,0,1.4,0s0.4-0.1,0.4-0.3v-5.7h-3V59
		h2c0.3-0.4,0.5-0.9,0.7-1.4l1.4,0.3c-0.1,0.4-0.3,0.8-0.5,1.1h3.5v5.3H73v1.2c0.1,0.2,0.3,0.5,0.5,0.9c0.6-0.5,1.2-1,1.7-1.6l1,0.9
		c-0.6,0.6-1.3,1.2-1.9,1.8C74.9,68.5,75.7,69.4,76.7,70.1z M74.3,61.1v-0.9H70v0.9L74.3,61.1z M74.3,63.2v-1H70v1H74.3z"/>
	<path class="st6" d="M111.3,68.7c-0.2,1.4-0.6,2.8-1.2,4.2l-1.4-0.7c0.5-1.3,0.9-2.6,1.1-4L111.3,68.7z M116.6,67.3l-1.4,0.6
		c-0.1-0.3-0.2-0.7-0.4-1c-1.8,0.5-3.6,0.8-5.4,1.1l-0.6-1.4c1.3-1.1,2.5-2.3,3.5-3.7c-0.8,0.2-1.8,0.3-2.9,0.4l-0.4-1.5
		c1.3-1.4,2.3-3,3-4.7l1.5,0.7c-0.7,1.4-1.5,2.7-2.5,3.8c0.8-0.1,1.7-0.2,2.5-0.4c0.4-0.6,0.8-1.3,1.2-1.9l1.4,0.8
		c-1.3,2.3-2.9,4.3-4.9,6c1-0.1,2-0.3,2.9-0.6c-0.1-0.3-0.3-0.6-0.4-0.8l1.4-0.5C115.8,65.1,116.2,66.2,116.6,67.3z M114.1,72
		l-1.5,0.4c-0.1-1.2-0.4-2.5-0.8-3.7l1.5-0.3C113.7,69.6,114,70.8,114.1,72z M116.4,71.1l-1.4,0.4c-0.2-1-0.5-2-0.9-3l1.4-0.3
		C115.9,69.1,116.2,70.1,116.4,71.1L116.4,71.1z M124.2,59.8c0,1.8-0.1,4.1-0.2,7s-0.3,4.6-0.6,5c-0.2,0.3-0.6,0.6-0.9,0.8
		c-0.7,0.2-1.3,0.2-2,0.2h-1.2l-0.7-1.6h2.7c0.2,0,0.4,0,0.5-0.2c0.1-0.1,0.2-0.2,0.3-0.4c0.1-0.7,0.2-1.4,0.2-2.1
		c0.1-1.2,0.2-2.4,0.2-3.7s0.1-2.4,0.1-3.5h-4.3c-0.4,0.9-0.9,1.7-1.4,2.5l-1.4-1c1.2-1.8,2.1-3.9,2.6-6l1.6,0.3
		c-0.2,0.9-0.4,1.7-0.8,2.5L124.2,59.8z M121.6,68l-1.3,0.9c-0.8-1.5-1.8-2.8-3-4l1.2-1C119.8,65.1,120.8,66.5,121.6,68z"/>
	<path class="st6" d="M137.2,71.9h-8.5v-1.7l3.9-3.9c0.7-0.7,1.4-1.4,1.9-2.2c0.4-0.6,0.6-1.3,0.6-2c0-1.5-0.8-2.3-2.4-2.3
		c-1.3,0-2.5,0.6-3.4,1.5v-2c1.1-0.8,2.4-1.2,3.8-1.2c1.1-0.1,2.2,0.3,3,1c0.8,0.7,1.2,1.7,1.1,2.7c0,0.9-0.3,1.7-0.7,2.5
		c-0.7,1.1-1.5,2.1-2.4,2.9l-3,2.9l0,0h6L137.2,71.9z"/>
	<path class="st6" d="M149,68.6h-1.7v3.4h-2v-3.4h-6.2v-1.3l5.9-8.9h2.3V67h1.7V68.6z M145.3,67v-5.3c0-0.4,0-0.9,0-1.4l0,0
		c-0.2,0.3-0.3,0.7-0.5,1l-3.7,5.7H145.3z"/>
	<path class="st6" d="M159.5,57.6c-0.5,1.4-1.3,2.8-2.2,4c-0.9,1.2-2,2.3-3.3,3.3l-1.1-1.2c2.4-1.7,4.2-4,5.2-6.8L159.5,57.6z
		 M166,63.6c0,1.7-0.1,3.3-0.2,5c0,1-0.2,2-0.5,3c-0.2,0.4-0.4,0.7-0.8,0.9c-0.4,0.2-0.8,0.4-1.3,0.3c-1.1,0-1.9,0-2.3,0l-0.6-1.6
		c0.9,0.1,1.7,0.1,2.6,0.1c0.2,0,0.4-0.1,0.6-0.2c0.2-0.1,0.3-0.9,0.4-2.2s0.2-2.6,0.2-3.7h-3.9c-0.4,3.4-2.6,6.4-5.7,7.8l-1.1-1.3
		c1.3-0.5,2.5-1.4,3.4-2.4c1-1.1,1.7-2.6,1.8-4.1h-2.9v-1.6H166z M168.8,63.7l-1,1.3c-2-1.6-3.6-3.7-4.5-6.2h-1.6v-1.5h2.7
		C165.1,59.8,166.7,62.1,168.8,63.7L168.8,63.7z"/>
	<path class="st6" d="M111.3,118.3c-0.2,1.4-0.6,2.9-1.2,4.2l-1.4-0.7c0.5-1.3,0.9-2.6,1.1-4L111.3,118.3z M116.6,116.9l-1.4,0.6
		c-0.1-0.3-0.2-0.7-0.4-1c-1.8,0.5-3.6,0.8-5.4,1.1l-0.6-1.4c1.3-1.1,2.5-2.3,3.5-3.7c-0.8,0.2-1.8,0.3-2.9,0.4l-0.4-1.5
		c1.3-1.4,2.3-3,3-4.7l1.5,0.7c-0.7,1.4-1.5,2.7-2.6,3.8c0.8-0.1,1.7-0.2,2.5-0.4c0.4-0.6,0.9-1.3,1.2-1.9l1.4,0.8
		c-1.3,2.3-2.9,4.3-4.9,6.1c1-0.1,2-0.3,2.9-0.6c-0.1-0.3-0.3-0.6-0.4-0.8l1.4-0.5C115.7,114.7,116.2,115.8,116.6,116.9z
		 M114.1,121.6l-1.5,0.4c-0.1-1.2-0.4-2.5-0.8-3.6l1.5-0.3C113.7,119.2,114,120.4,114.1,121.6z M116.4,120.7l-1.4,0.4
		c-0.2-1-0.5-2-0.9-3l1.4-0.3C115.9,118.7,116.2,119.7,116.4,120.7z M124.2,109.4c0,1.8-0.1,4.1-0.2,7s-0.3,4.6-0.6,5
		c-0.2,0.3-0.6,0.6-0.9,0.8c-0.6,0.2-1.3,0.3-2,0.2h-1.2l-0.7-1.6h2.7c0.2,0,0.4,0,0.5-0.2c0.1-0.1,0.2-0.2,0.3-0.4
		c0-0.2,0.1-0.8,0.2-2.1s0.2-2.4,0.2-3.7s0.1-2.4,0.1-3.5h-4.3c-0.4,0.9-0.9,1.7-1.4,2.5l-1.3-0.9c1.2-1.8,2.1-3.9,2.6-6l1.6,0.3
		c-0.2,0.9-0.4,1.7-0.8,2.5L124.2,109.4z M121.6,117.5l-1.3,0.9c-0.8-1.5-1.8-2.8-3-4l1.2-0.9C119.8,114.7,120.8,116,121.6,117.5z"
		/>
	<path class="st6" d="M137.4,121.5h-8v-1.7h3v-9.8l-3.1,0.8V109l5.1-1.3v12.2h3L137.4,121.5z"/>
	<path class="st6" d="M146.6,110.4c-0.6,3.2-1.7,6.2-3.4,8.9l-1.4-1c1.6-2.6,2.7-5.4,3.2-8.4L146.6,110.4z M150.9,120.2
		c0,1.5-0.6,2.2-1.8,2.2s-1.9,0-2.1,0l-0.6-1.7c0.5,0,1.2,0.1,2.3,0.1c0.4,0,0.6-0.2,0.6-0.5v-13.6h1.7L150.9,120.2z M157.7,118.7
		l-1.5,0.8c-0.7-3.1-1.7-6.1-3-9l1.5-0.6C155.9,112.7,156.9,115.7,157.7,118.7L157.7,118.7z"/>
	<path class="st6" d="M165.4,121.1h-1.5v-0.8h-1.5v1.3h-1.6v-13.8h4.6L165.4,121.1z M163.9,113.4v-4.3h-1.5v4.3H163.9z M163.9,118.8
		v-3.9h-1.5v3.9H163.9z M176,116.5h-1.7v4.2c0,0.4-0.1,0.7-0.3,1c-0.2,0.2-0.4,0.4-0.7,0.5c-0.5,0.1-1,0.2-1.6,0.1
		c-0.4,0-0.8,0-1.1,0l-0.5-1.5h2.2c0.3,0,0.4-0.1,0.4-0.4v-3.9h-6.6v-1.4h6.6v-1.2h1.5v1.2h1.8V116.5z M175.8,109.9h-4v1.9h3.5v1.4
		h-8.6v-1.4h3.5v-1.9h-3.9v-1.4h3.9v-1.8h1.6v1.8h4L175.8,109.9z M170.6,119.6l-1.3,0.9c-0.7-0.9-1.4-1.8-2.3-2.6l1.2-0.9
		C169.1,117.7,169.9,118.6,170.6,119.6L170.6,119.6z"/>
	<path class="st6" d="M189.4,118.1h-1.7v3.4h-2v-3.4h-6.2v-1.3l5.9-8.9h2.3v8.7h1.7L189.4,118.1z M185.8,116.6v-5.3
		c0-0.4,0-0.8,0-1.4l0,0c-0.2,0.3-0.3,0.7-0.5,1l-3.7,5.7L185.8,116.6z"/>
	<path class="st6" d="M191.7,119c0.9,0.7,2,1.1,3.2,1.1c0.7,0,1.5-0.2,2.1-0.6c0.5-0.4,0.8-1.1,0.8-1.7c0-1.6-1.2-2.4-3.5-2.4h-1.2
		v-1.7h1.1c2.1,0,3.1-0.8,3.1-2.2s-0.8-2.1-2.4-2.1c-1,0-1.9,0.4-2.7,1v-1.8c1-0.5,2.1-0.8,3.2-0.8c1,0,2.1,0.3,2.9,0.9
		c0.7,0.6,1.2,1.5,1.1,2.4c0.1,1.7-1.1,3.1-2.7,3.4l0,0c0.9,0,1.7,0.4,2.3,1c0.6,0.6,0.9,1.4,0.9,2.2c0,1.2-0.5,2.3-1.4,3
		c-1,0.8-2.3,1.2-3.6,1.1c-1.1,0.1-2.2-0.2-3.2-0.7L191.7,119z"/>
	<path class="st6" d="M211,107.2c-0.5,1.4-1.3,2.8-2.2,4c-0.9,1.3-2,2.4-3.3,3.3l-1.1-1.2c2.4-1.7,4.2-4,5.2-6.7L211,107.2z
		 M217.5,113.2c0,1.7-0.1,3.3-0.2,5c0,1-0.2,2-0.4,3c-0.2,0.4-0.4,0.7-0.8,0.9c-0.4,0.2-0.8,0.3-1.3,0.3c-1.1,0-1.9,0-2.3,0
		l-0.5-1.6c0.8,0.1,1.7,0.1,2.6,0.1c0.2,0,0.4-0.1,0.6-0.2c0.2-0.1,0.3-0.9,0.4-2.2s0.2-2.6,0.2-3.7H212c-0.4,3.4-2.6,6.4-5.8,7.8
		l-1.1-1.2c1.3-0.5,2.5-1.4,3.4-2.4c1-1.1,1.7-2.6,1.8-4.1h-2.9v-1.6L217.5,113.2z M220.3,113.3l-1,1.3c-2-1.6-3.6-3.7-4.5-6.2h-1.6
		v-1.5h2.7C216.6,109.5,218.2,111.7,220.3,113.3L220.3,113.3z"/>
	<path class="st6" d="M35.3,109.7H21.7v-1.2h6.2c-0.1-0.4-0.3-0.7-0.5-1l1.4-0.3c0.2,0.4,0.4,0.8,0.5,1.3h5.9V109.7z M34.7,120
		c0,0.4-0.2,0.7-0.4,0.9c-0.7,0.3-1.4,0.4-2.1,0.4l-0.5-1.4c0.4,0,0.7,0,0.9,0c0.2,0,0.4,0,0.6-0.1c0.1,0,0.1-0.1,0.1-0.2v-4h-9.6
		v5.6h-1.4v-6.8h12.4V120z M33.1,113.7h-9.4v-3.3h9.4L33.1,113.7z M31.8,119.7h-6.6v-3.2h6.6L31.8,119.7z M31.7,112.5v-1h-6.4v1
		H31.7z M30.4,118.5v-1h-3.8v1H30.4z"/>
	<path class="st6" d="M51.8,119.7l-0.4,1.4c-0.7,0-1.4,0-2.3,0c-1.2,0-2.4,0-3.7,0c-1,0-2-0.1-3-0.4c-0.7-0.2-1.4-0.6-2-1.1
		c-0.4,0.7-0.9,1.3-1.5,1.9l-1.1-0.9c1.3-1.3,2.2-2.9,2.6-4.6H38v-1.3c0.8-0.8,1.5-1.7,2.2-2.7h-2.4v-1.3h4.1v1.3
		c-0.6,1-1.3,1.9-2.1,2.7h2.1v1.3c-0.2,0.8-0.5,1.6-0.8,2.4c1.1,1,2.6,1.5,4.1,1.4C47.4,119.8,49.6,119.8,51.8,119.7z M41.6,109.3
		l-1,1c-0.7-0.8-1.6-1.5-2.5-2.1l0.9-1C40,107.8,40.8,108.5,41.6,109.3z M51.8,117.8l-0.7,1.1c-1-0.8-2.1-1.6-3.3-2.3v2.6h-1.4v-2.8
		c-1,1-2.2,1.9-3.4,2.7l-0.9-1.1c1.4-0.7,2.7-1.7,3.8-2.9h-2.8v-4h3.3v-1h-3.8v-1.3h3.8v-1.4h1.4v1.4h3.9v1.2h-3.9v1h3.4v4h-3.4v0.2
		C49.2,115.9,50.5,116.8,51.8,117.8z M46.4,113.8v-1.6h-2v1.6H46.4z M49.8,113.8v-1.6h-2v1.6H49.8z"/>
	<path class="st6" d="M68.2,117.1c-0.1,0.7-0.2,1.5-0.3,2.2c-0.1,0.5-0.4,1-0.8,1.4c-0.3,0.2-0.6,0.4-1,0.4c-0.3,0-1.3,0-3.2,0h-2.8
		h-2.7c-0.9,0-1.4,0-1.6-0.1c-0.2,0-0.3-0.1-0.5-0.2c-0.2-0.1-0.3-0.3-0.4-0.5c-0.1-0.2-0.2-0.5-0.2-0.8v-11.7h12.4v7.1h-11v4.3
		c0,0.1,0.1,0.3,0.2,0.3c0.1,0.1,0.3,0.1,0.5,0.1l1.9,0.1c1,0,2.2,0,3.4,0c2.1,0,3.4,0,3.6-0.1c0.2,0,0.4-0.1,0.6-0.3
		c0.1-0.3,0.2-0.6,0.3-0.9c0.1-0.7,0.1-1.3,0.2-2L68.2,117.1z M60.2,113.4v-4.3h-4.1v4.3H60.2z M65.7,113.4v-4.3h-4v4.3H65.7z"/>
	<path class="st6" d="M84.4,113.7h-6.3v5.8h5.3v1.4H71.3v-1.4h5.3v-5.8h-6.2v-1.4h6.2v-5h1.5v5h6.3V113.7z"/>
	<path class="st7" d="M46.4,25.3c-0.5,1.2-1.1,2.3-1.9,3.3l-1.6-0.8c0.8-0.9,1.5-1.9,2-2.9L46.4,25.3z M50.4,23.2
		c0,0.4-0.1,0.7-0.3,1c-0.2,0.2-0.5,0.4-0.8,0.4c-0.6,0.1-1.2,0.1-1.8,0.1L47,23.2h1c0.3,0,0.5,0,0.8-0.1c0.1-0.1,0.2-0.2,0.1-0.3
		v-0.9c-1,0.4-2,0.8-3,1.1l-0.5-0.9c-0.2,1.1-0.6,2.1-1.3,2.9l-1.2-1.1c0.8-1,1.2-2.3,1.1-3.5v-3h6.4V23.2z M51.7,16.4l-1.4,0.7
		c-0.2-0.3-0.4-0.7-0.6-1c-2,0.3-4.1,0.5-6.2,0.6l-0.3-1.4c1.1-0.6,2-1.5,2.5-2.7l1.7,0.4c-0.5,0.8-1,1.6-1.7,2.2
		c1.1,0,2.1-0.1,3.2-0.3c-0.3-0.3-0.6-0.7-0.8-0.9l1.4-0.8C50.2,14.2,51,15.2,51.7,16.4L51.7,16.4z M48.9,20.7v-2h-3.3v0.5
		c0.9,0.1,1.8,0.2,2.8,0.4l-0.4,1.2c-0.8-0.2-1.6-0.3-2.3-0.4c0,0.5,0,0.9-0.1,1.4C46.6,21.5,47.8,21.1,48.9,20.7L48.9,20.7z
		 M50.4,28.1l-1.7,0.4c-0.2-1-0.5-2-0.9-3l1.6-0.4C49.8,26.1,50.1,27.1,50.4,28.1L50.4,28.1z M54.8,28.2l-1.7,0.4
		c-0.4-1-0.9-2-1.5-3l1.6-0.4C53.8,26.1,54.3,27.1,54.8,28.2L54.8,28.2z M58.5,18.2h-5.3c-0.7,0.1-1.4-0.4-1.5-1.2
		c0-0.1,0-0.3,0-0.4v-3.9h1.6V14h4.7v1.3h-4.7v1.1c0,0.3,0.2,0.4,0.5,0.4h4.6L58.5,18.2z M58.8,22.5c-0.1,0.6-0.3,1.1-0.6,1.6
		c-0.3,0.3-0.6,0.5-1,0.5c-0.4,0-1.3,0.1-2.5,0.1c-0.7,0-1.3,0-1.6-0.1c-0.3,0-0.7-0.2-0.9-0.4c-0.3-0.3-0.4-0.7-0.3-1.2v-4.2h1.6
		v1.2h4.7v1.4h-4.8v1.4c0,0.2,0.1,0.4,0.2,0.4c0.5,0.1,0.9,0.1,1.4,0.1c0.8,0,1.3,0,1.5,0c0.2,0,0.4-0.2,0.5-0.3
		c0.2-0.3,0.3-0.6,0.3-1L58.8,22.5z M58.9,27.9l-1.6,0.7c-0.5-1.1-1.2-2.1-2-3l1.5-0.6C57.7,25.9,58.4,26.9,58.9,27.9L58.9,27.9z"/>
	<path class="st7" d="M79.5,24.6l-1.1,1.1c-2.6-1.9-4.7-4.5-6-7.6v5.9H76v1.6h-3.6v2.9h-1.6v-2.9h-3.6v-1.6h3.6v-6
		c-1.3,3-3.4,5.6-6.1,7.5l-1.1-1.2c2.6-1.9,4.7-4.4,6-7.4h-5.5v-1.5h6.6v-2.7h1.6v2.7h6.6v1.6h-5.6C74.7,20.1,76.8,22.7,79.5,24.6z"
		/>
	<path class="st7" d="M155.6,13.1c-0.2,0.8-0.5,1.7-0.9,2.5l-0.6,1.3v11.6h-1.6v-8.9c-0.4,0.5-0.8,1-1.3,1.5l-0.8-1.7
		c1.6-2,2.8-4.2,3.5-6.7L155.6,13.1z M166.4,28.2h-11.1v-1.5h5.3v-4.9h-2.5c-0.7,1.1-1.5,2.2-2.4,3.1l-1.2-1.1
		c1.9-2,3.3-4.3,4.2-6.9h-3.3v-1.5h3.7c0.2-0.9,0.4-1.8,0.5-2.7l1.6,0.3c-0.1,0.8-0.2,1.7-0.4,2.5h5.6v1.5h-6
		c-0.4,1.2-0.8,2.3-1.4,3.5h7v1.5h-3.7v4.9h4.2L166.4,28.2z"/>
	<path class="st7" d="M179.5,14c0,0.8-0.1,1.7-0.2,2.5c0,0.4-0.2,0.8-0.4,1.1c-0.1,0.2-0.3,0.3-0.5,0.4c-0.7,0.1-1.4,0.1-2.2,0.1
		l-0.4-1.4c0.3,0,0.7,0.1,1,0.1c0.4,0,0.7-0.1,0.9-0.2c0.2-0.4,0.2-0.8,0.2-1.2h-2.1c-0.7,1.6-2,2.9-3.5,3.7l-0.9-1.2
		c1.2-0.5,2.2-1.4,2.9-2.5h-2.5V14h2.9c0.1-0.4,0.1-0.9,0.2-1.3h1.6c-0.1,0.6-0.1,1.1-0.2,1.3H179.5z M185,25.7h-7.7l0.7,0.6
		c-1.8,1.1-3.7,1.8-5.7,2.3l-0.9-1.3c1.6-0.3,3.1-0.8,4.6-1.5h-2.3v-6.9H185V25.7z M183.4,20.7V20h-8.1v0.7H183.4z M183.4,22.5v-0.7
		h-8.1v0.7H183.4z M183.4,24.4v-0.7h-8.1v0.7H183.4z M186.6,18h-6.2v-4.8h6.2V18z M187.3,27.1l-0.8,1.4c-1.7-0.6-3.5-1-5.3-1.2
		L182,26C183.8,26.3,185.5,26.6,187.3,27.1L187.3,27.1z M185,16.7v-2.1h-3.1v2.1H185z"/>
	<g class="st8">
		<line class="st9" x1="104.3" y1="23.2" x2="104.8" y2="23.2"/>
		<line class="st10" x1="111.1" y1="23.2" x2="122.6" y2="23.2"/>
		<line class="st9" x1="125.8" y1="23.2" x2="126.3" y2="23.2"/>
	</g>
	<path class="st11" d="M93.7,24.2l4.5,4.5c0.6,0.6,1.5,0.6,2.1,0c0.3-0.3,0.4-0.6,0.4-1v-9c0-0.8-0.7-1.5-1.5-1.5
		c-0.4,0-0.8,0.2-1,0.4l-4.5,4.5C93.1,22.7,93.1,23.6,93.7,24.2z"/>
	<path class="st11" d="M137.7,24.2l-4.6,4.5c-0.6,0.6-1.5,0.6-2.1,0c-0.3-0.3-0.4-0.6-0.4-1v-9c0-0.8,0.7-1.5,1.5-1.5
		c0.4,0,0.8,0.2,1,0.4l4.6,4.5C138.3,22.7,138.3,23.6,137.7,24.2z"/>
	<path class="st6" d="M177.8,59.7l-1,1.2c-0.5-0.7-1.1-1.3-1.8-1.9c-0.5,0.8-1,1.5-1.6,2.1h3.4v1.5h-1.3V64h1.9v1.5h-1.9v4.8
		c0.3,0,0.8-0.2,1.6-0.3v1.4c-1.8,0.5-3.6,0.9-5.4,1.1l-0.2-1.5c0.9-0.1,1.7-0.3,2.4-0.4v-5.1h-2.1v-1.5h2.2v-1.4h-1.3V62
		c-0.1,0.1-0.3,0.3-0.5,0.4l-0.7-1.4c1.2-1.2,2.3-2.6,3-4.2l1.4,0.5c-0.1,0.1-0.1,0.3-0.2,0.4C176.4,58.4,177.1,59,177.8,59.7z
		 M173.5,69.9l-1.3,0.3c-0.1-1.3-0.2-2.5-0.4-3.8l1.2-0.3C173.3,67.4,173.5,68.7,173.5,69.9z M177.8,66.5c-0.1,1-0.4,2.1-0.8,3.1
		l-1.1-0.5c0.3-1,0.6-2,0.7-3L177.8,66.5z M187.2,62.1h-9.7v-1.3h2.2c-0.2-0.4-0.3-0.9-0.5-1.3h-1.3v-1.3h3.5
		c-0.1-0.2-0.3-0.4-0.5-0.8l1.6-0.4c0.3,0.4,0.5,0.8,0.6,1.3h3.8v1.3h-1.3c-0.2,0.4-0.3,0.8-0.5,1.3h2.2V62.1z M187.4,72.6h-9.9
		v-1.3h4.2v-1h-3.6v-1.2h3.6v-0.9h-3.5v-5.4h8.6v5.4h-3.5v0.9h3.5v1.3h-3.5v1h4.2V72.6z M181.7,64.9v-1h-2v1H181.7z M181.7,67.1V66
		h-2v1.1H181.7z M183.9,59.5h-3c0.2,0.4,0.4,0.8,0.5,1.3h1.9C183.5,60.3,183.7,59.9,183.9,59.5z M185.3,64.9v-1h-2.1v1H185.3z
		 M185.3,67.1V66h-2.1v1.1H185.3z"/>
</g>
</svg>
